<?xml version="1.0" encoding="utf-8"?>
<!-- Generator: Adobe Illustrator 23.0.6, SVG Export Plug-In . SVG Version: 6.00 Build 0)  -->
<svg version="1.1" id="Layer_1" xmlns="http://www.w3.org/2000/svg" xmlns:xlink="http://www.w3.org/1999/xlink" x="0px" y="0px"
	 viewBox="0 0 300 300" style="enable-background:new 0 0 300 300;" xml:space="preserve">
<g>
	<g>
		<path d="M51.34,116.47c0-6.32,3.1-12.31,10.21-12.31c10.31,0,9.43,7.99,9.43,15.87v27.84H71h18.84h0.02v-31.39
			c0-6.32,3.11-12.31,10.21-12.31c10.31,0,9.43,7.99,9.43,15.87v27.84h18.86v-36.94c0-8.32-1.55-22.3-20.74-22.3
			c-6.88,0-14.64,3.66-18.08,9.54l-1.19,2.07C86.2,94.1,81.1,88.62,69.09,88.62c-6.88,0-14.65,3.66-18.08,9.54h-0.23v-7.88h-18.3
			v57.58h18.86V116.47z"/>
		<rect x="132.62" y="68.66" width="18.86" height="14.42"/>
		<rect x="132.62" y="90.29" width="18.86" height="57.58"/>
		<polygon points="155.75,104.93 184.48,133.44 155.75,133.44 155.75,147.87 208.45,147.87 208.45,133.56 179.71,104.71 
			208.45,104.71 208.45,90.29 155.75,90.29 		"/>
		<rect x="132.62" y="216.92" width="18.86" height="14.42"/>
		<rect x="132.62" y="152.13" width="18.86" height="57.58"/>
		<polygon points="155.75,166.55 184.48,166.55 155.75,195.07 155.75,209.71 208.45,209.71 208.45,195.29 179.71,195.29 
			208.45,166.45 208.45,152.13 155.75,152.13 		"/>
		<path d="M265.41,90.29h-13.39h-39.3v14.42h28.73l-28.73,28.51v14.64h54.8v-8.79v-5.63V90.29H265.41z M236.68,133.44l15.34-15.4
			v15.4H236.68z"/>
		<path d="M61.55,195.85c-7.1,0-10.21-5.99-10.21-12.31v-31.4H32.48v57.58h18.3v-7.88h0.23c3.44,5.88,11.2,9.54,18.08,9.54
			c1.78,0,3.39-0.13,4.88-0.35l-8.53-15.71C64.36,195.65,63.09,195.85,61.55,195.85z"/>
		<path d="M109.5,183.53c0,6.32-3.1,12.31-10.21,12.31c-10.32,0-9.43-7.99-9.43-15.87v-27.85h-0.03H71v36.94
			c0,6.24,0.87,15.67,9.42,19.99c2.84,1.44,6.53,2.31,11.33,2.31c6.88,0,14.64-3.66,18.08-9.54h0.22v7.88h18.31v-57.58H109.5V183.53
			z"/>
	</g>
	<path d="M281.14,18.86v262.28H18.86V18.86H281.14 M300,0h-18.86H18.86H0v18.86v262.28V300h18.86h262.28H300v-18.86V18.86V0L300,0z"
		/>
</g>
</svg>
